# xmcd
#
# Track frame offsets: 
#        150
#        20312
#        37105
#        53217
#        70433
#        89217
#        108054
#        125141
#        147827
#        164022
#
# Disc length: 2450 seconds
#
# Revision: 0
# Processed by: cddbd v1.5.1PL2 Copyright (c) Steve Scherf et al.
# Submitted via: ExactAudioCopy v0.95b3
#
DISCID=9509900a
DTITLE=Pigram Brothers - Under The Mango Tree
DYEAR=2006
DGENRE=Country
TTITLE0=Moonlight
TTITLE1=Wind Dance
TTITLE2=Loser
TTITLE3=Capricorn Rain
TTITLE4=Halfway Hotel
TTITLE5=Easy
TTITLE6=Thirsty People
TTITLE7=Flow
TTITLE8=Hometown
TTITLE9=Edarr Billabong
EXTD=
EXTT0=
EXTT1=
EXTT2=
EXTT3=
EXTT4=
EXTT5=
EXTT6=
EXTT7=
EXTT8=
EXTT9=
PLAYORDER=
